<?xml version="1.0" encoding="UTF-8"?>
<svg version="1.1" xmlns="http://www.w3.org/2000/svg" width="500" height="500">
<path d="M0 0 C0.76719085 -0.00497769 1.5343817 -0.00995538 2.32482076 -0.01508391 C4.891785 -0.02564922 7.45714128 -0.00051729 10.02398682 0.02450562 C11.86544441 0.02427889 13.70690285 0.0218645 15.5483551 0.01742554 C20.54613206 0.01171786 25.543326 0.03701362 30.54099178 0.06810045 C35.76554779 0.09562907 40.99010445 0.09563949 46.21472168 0.09881592 C54.98441673 0.10801922 63.75389362 0.13555471 72.52349854 0.1758728 C84.907759 0.23275559 97.29190988 0.25502796 109.6762805 0.2711575 C118.2398768 0.28359628 126.80345633 0.3042826 135.36703205 0.32653761 C137.44759978 0.33190552 139.52816813 0.33704153 141.60873699 0.34194994 C147.53502912 0.35621941 153.46125803 0.37559697 159.38750267 0.40342712 C161.18669424 0.41117283 162.98589397 0.41722411 164.78509712 0.42150497 C167.23023363 0.42768605 169.67525945 0.44002042 172.12036133 0.45410156 C173.20228716 0.4548482 173.20228716 0.4548482 174.30607009 0.45560992 C179.19194784 0.49373617 179.19194784 0.49373617 180.30621338 1.60800171 C182.74238932 10.79670725 184.01443158 21.59516676 180.30621338 30.60800171 C173.40739385 41.66844849 162.32478045 50.4024286 152.49249268 58.7684021 C150.05315911 60.86114243 148.20855048 63.00990788 146.30621338 65.60800171 C145.64621338 65.60800171 144.98621338 65.60800171 144.30621338 65.60800171 C144.05871338 66.20612671 143.81121338 66.80425171 143.55621338 67.42050171 C142.03774094 70.07782848 140.96866243 71.07239278 138.30621338 72.60800171 C135.66076715 72.89028284 133.25500638 73.00050596 130.61206055 72.96876526 C129.8327679 72.97132853 129.05347525 72.97389181 128.25056767 72.97653276 C125.63707039 72.98147755 123.0241497 72.9649665 120.41070557 72.94857788 C118.53821832 72.94773176 116.66573008 72.94820646 114.79324341 72.9499054 C109.7067787 72.95076735 104.62052554 72.93310914 99.53411007 72.91218352 C94.21965032 72.89345011 88.90518591 72.89166891 83.59069824 72.8881073 C73.52556669 72.87877703 63.46053271 72.85414992 53.39544415 72.82405883 C41.93730018 72.7905454 30.47915159 72.7740365 19.02097082 72.75897253 C-4.55066912 72.72760126 -28.12222241 72.67482164 -51.69378662 72.60800171 C-53.24534126 67.9533378 -53.08453065 63.29756708 -53.19378662 58.42050171 C-53.24792725 57.40407593 -53.30206787 56.38765015 -53.35784912 55.34042358 C-53.375896 54.34204468 -53.39394287 53.34366577 -53.41253662 52.31503296 C-53.44282959 51.41244751 -53.47312256 50.50986206 -53.5043335 49.57992554 C-52.22398144 44.88542988 -49.03478719 42.0385359 -45.69378662 38.60800171 C-44.76835052 37.64796486 -44.76835052 37.64796486 -43.82421875 36.66853333 C-41.88938928 34.68868841 -39.93223567 32.73365768 -37.96722412 30.78378296 C-37.25651764 30.07449142 -36.54581116 29.36519989 -35.81356812 28.63441467 C-33.56767185 26.39405686 -31.31831035 24.15721659 -29.06878662 21.92050171 C-27.55292825 20.40966811 -26.03730128 18.89860231 -24.52191162 17.38729858 C-21.18366059 14.05880207 -17.84322625 10.73251528 -14.50076294 7.4082489 C-12.5702565 5.54220931 -12.5702565 5.54220931 -10.56171227 3.03348637 C-7.01081457 0.03039321 -4.44416247 -0.08660532 0 0 Z " fill="#F3F4F3" transform="translate(152.69378662109375,123.39199829101563)"/>
<path d="M0 0 C1.90113311 1.90113311 1.30691782 5.34159825 1.40287781 7.93687439 C1.433366 8.67171934 1.46385419 9.40656429 1.49526626 10.16367728 C1.59589617 12.64660749 1.688386 15.12975982 1.7800293 17.61303711 C1.83022248 18.91430227 1.83022248 18.91430227 1.88142967 20.24185562 C2.54454894 37.50696205 2.94559254 54.77664923 3.25824261 72.05133724 C3.4621879 83.03864741 3.74416988 94.01242293 4.22338867 104.99145508 C7.69808885 186.24771545 7.69808885 186.24771545 -11.58016878 208.10452098 C-13.80941029 210.50479408 -16.15805553 212.7593815 -18.54296875 215.00390625 C-19.43150354 215.84644392 -20.32003834 216.68898159 -21.23549843 217.5570507 C-32.92145398 228.05555353 -43.23369838 231.52654998 -58.89663219 230.76811314 C-61.60701476 230.56440848 -64.30073864 230.31637828 -67 230 C-68.48032407 227.03935187 -68.26815161 224.28497704 -68.40287781 220.98083496 C-68.433366 220.24921914 -68.46385419 219.51760331 -68.49526626 218.76381731 C-68.59570147 216.29780817 -68.68829881 213.83158186 -68.7800293 211.36523438 C-68.81349142 210.50268162 -68.84695354 209.64012886 -68.88142967 208.75143814 C-69.54397256 191.59156139 -69.94549571 174.42718046 -70.25824261 157.2576828 C-70.46221285 146.33993068 -70.74429405 135.43579375 -71.22338867 124.52636719 C-74.69726084 43.78260708 -74.69726084 43.78260708 -55.41983122 21.93399954 C-53.19007697 19.53328683 -50.84145969 17.27728171 -48.45703125 15.03125 C-47.12422906 13.76600746 -47.12422906 13.76600746 -45.76450157 12.47520447 C-32.08073653 0.1635652 -18.12980073 -2.9772084 0 0 Z " fill="#EDEDED" transform="translate(387,175)"/>
<path d="M0 0 C4.99344094 0.25574707 9.99004331 0.34571446 14.98840332 0.45654297 C22.24825047 0.64548746 29.50353191 0.87967474 36.75598145 1.26220703 C37.51210724 1.29586365 38.26823303 1.32952026 39.04727173 1.36419678 C44.23076043 1.66765008 44.23076043 1.66765008 46.46496582 3.90185547 C46.90978436 7.98107187 46.8791358 12.06665445 46.89050293 16.16821289 C46.90236555 18.19720463 46.95149607 20.22311873 47.0020752 22.25146484 C47.00916504 23.53472656 47.01625488 24.81798828 47.02355957 26.14013672 C47.04374146 27.90417847 47.04374146 27.90417847 47.06433105 29.70385742 C46.28189167 33.8786735 44.55092124 35.03835265 41.46496582 37.90185547 C40.61773206 39.13766128 39.80942738 40.40069975 39.0333252 41.68237305 C30.98952107 54.80302292 19.90195869 69.67455797 4.17497253 73.45186615 C-9.72785464 75.96499126 -24.09635984 75.55172624 -38.16003418 75.15185547 C-39.14478729 75.12426273 -40.12954041 75.09667 -41.14413452 75.06824112 C-51.16536006 74.76508397 -61.17388916 74.2890612 -71.17419434 73.57080078 C-71.9104882 73.51949918 -72.64678207 73.46819757 -73.40538788 73.41534138 C-78.41290201 73.02398764 -78.41290201 73.02398764 -79.53503418 71.90185547 C-79.80193946 67.39686245 -79.8063171 62.88622251 -79.8302002 58.37426758 C-79.847387 56.10875577 -79.89125255 53.84471333 -79.9354248 51.57958984 C-79.94555389 50.13884538 -79.95406932 48.69808849 -79.96081543 47.25732422 C-79.97539795 45.94401123 -79.98998047 44.63069824 -80.00500488 43.27758789 C-79.53503418 39.90185547 -79.53503418 39.90185547 -77.63342285 37.44213867 C-75.53503418 35.90185547 -75.53503418 35.90185547 -73.53503418 35.90185547 C-73.20503418 34.91185547 -72.87503418 33.92185547 -72.53503418 32.90185547 C-70.87971174 31.22392127 -69.21122587 29.55894237 -67.53503418 27.90185547 C-65.97992146 25.87747311 -64.44396363 23.83828448 -62.92370605 21.78759766 C-45.01923786 -0.87041622 -27.56879683 -1.58863661 0 0 Z " fill="#EFEFEF" transform="translate(236.5350341796875,330.09814453125)"/>
<path d="M0 0 C7.35636197 77.72388425 7.35636197 77.72388425 -10.30801392 99.31048584 C-21.54323469 111.59051954 -35.82812152 123.85325644 -53.18481445 124.63232422 C-58.67005696 124.44207648 -63.76327166 123.63963074 -69 122 C-78.40959896 103.18080207 -75.07236661 59.89123849 -70 40 C-66.49335604 29.92340478 -59.54171742 22.20078236 -51.875 15 C-51.04646515 14.18488953 -50.2179303 13.36977905 -49.36428833 12.52996826 C-34.43843626 -1.5932736 -19.37879393 -1.91662452 0 0 Z " fill="#ECECEC" transform="translate(170,227)"/>
<path d="M0 0 C6.72218216 3.88320231 11.77106729 9.17915633 14.08984375 16.734375 C15.63170991 24.54649687 14.4988147 30.97242223 10.5 37.8125 C6.57640403 43.64184259 1.1800957 47.39239463 -5.546875 49.43359375 C-13.11054791 50.90094629 -20.30286217 49.62049664 -26.70703125 45.3359375 C-32.54895002 40.5887011 -36.88083177 34.34441283 -37.73828125 26.68359375 C-37.98858387 18.47630267 -35.78368289 12.37235862 -31.375 5.5 C-22.52900585 -2.76908149 -11.20355094 -5.2516645 0 0 Z M-26.9140625 11.375 C-30.75872485 16.90688827 -31.18723048 22.28865007 -30.5 28.8125 C-28.71078644 34.72201679 -25.52494089 38.35785314 -20.5 41.8125 C-14.69657219 43.69891442 -8.55092438 43.39359524 -2.75 41.75 C2.24282978 38.77350532 5.30279036 35.15486669 7.9375 30 C8.8978935 24.55777015 8.9411787 19.44209683 6.23046875 14.49609375 C2.85203141 9.85181154 -0.59790344 5.78301683 -6.5 4.8125 C-14.42982976 3.85379865 -21.36408642 5.24242974 -26.9140625 11.375 Z " fill="#939393" transform="translate(392.5,97.1875)"/>
<path d="M0 0 C0 3.48354205 -0.45035158 3.88427053 -2.6875 6.375 C-3.18636719 6.93960938 -3.68523437 7.50421875 -4.19921875 8.0859375 C-8.19638569 12.33455312 -12.40092639 16.34420894 -16.67358398 20.31201172 C-18.0882105 21.6323298 -19.49365849 22.96253491 -20.89086914 24.30126953 C-23.84233698 27.12241105 -26.65725414 29.76083362 -30.01171875 32.1015625 C-33.63202175 34.74828965 -35.72426988 37.40154363 -36.49623108 41.8767395 C-36.53108864 43.4075264 -36.53108864 43.4075264 -36.56665039 44.96923828 C-36.60028687 46.08065186 -36.63392334 47.19206543 -36.6685791 48.3371582 C-36.68642456 49.48659912 -36.70427002 50.63604004 -36.72265625 51.8203125 C-36.75427856 52.98957275 -36.78590088 54.15883301 -36.81848145 55.36352539 C-36.89416223 58.24233417 -36.95413026 61.12058731 -37 64 C-12.31334041 63.96285197 12.3731737 63.90301867 37.0597105 63.81609726 C48.5218244 63.77626939 59.98386927 63.74389594 71.44604492 63.72900391 C81.43520764 63.71600682 91.42421872 63.68909192 101.41329604 63.64538693 C106.70361699 63.62272841 111.99375059 63.60709195 117.28412437 63.60811615 C122.26231941 63.60886017 127.2400996 63.59101346 132.21818733 63.55883217 C134.04632044 63.55030477 135.87449992 63.54860242 137.70264435 63.55419731 C140.19744773 63.56081616 142.69092304 63.54296862 145.18559265 63.51898193 C145.91030862 63.52674235 146.63502459 63.53450277 147.38170165 63.54249835 C152.17977716 63.46073835 154.5833962 62.34181095 158 59 C156.587454 62.41365282 155.21165084 64.14763039 152 66 C149.35455377 66.28228113 146.948793 66.39250425 144.30584717 66.36076355 C143.52655452 66.36332682 142.74726187 66.3658901 141.9443543 66.36853105 C139.33085701 66.37347584 136.71793633 66.35696479 134.10449219 66.34057617 C132.23200494 66.33973005 130.3595167 66.34020475 128.48703003 66.34190369 C123.40056532 66.34276564 118.31431216 66.32510743 113.22789669 66.30418181 C107.91343694 66.28544841 102.59897253 66.28366721 97.28448486 66.28010559 C87.21935331 66.27077532 77.15431933 66.24614822 67.08923078 66.21605712 C55.6310868 66.1825437 44.17293821 66.16603479 32.71475744 66.15097082 C9.1431175 66.11959955 -14.42843579 66.06681993 -38 66 C-39.55155464 61.34533609 -39.39074402 56.68956537 -39.5 51.8125 C-39.55414063 50.79607422 -39.60828125 49.77964844 -39.6640625 48.73242188 C-39.68210937 47.73404297 -39.70015625 46.73566406 -39.71875 45.70703125 C-39.74904297 44.8044458 -39.77933594 43.90186035 -39.81054688 42.97192383 C-38.53029218 38.27778514 -35.34066547 35.43029209 -32 32 C-31.38452301 31.36145584 -30.76904602 30.72291168 -30.13491821 30.0650177 C-28.21286041 28.09805083 -26.26861328 26.15577864 -24.31640625 24.21875 C-23.61603745 23.51979614 -22.91566864 22.82084229 -22.19407654 22.10070801 C-19.98591542 19.89808461 -17.77427963 17.69898919 -15.5625 15.5 C-14.05250186 13.99502492 -12.5427341 12.48981865 -11.03320312 10.984375 C-7.35812359 7.32024171 -3.67992644 3.6592652 0 0 Z " fill="#585858" transform="translate(139,130)"/>
<path d="M0 0 C8.1571008 0.12632678 13.65563087 2.67476029 19.875 7.8125 C25.21169459 14.40488743 27.38071636 20.33513668 27.28125 28.77734375 C26.54983062 35.6953521 22.90947303 41.63712637 18 46.4375 C11.21895118 50.92174196 5.24294589 53.27332318 -3 52.4375 C-6.10323033 51.68608888 -9.11382752 50.81427374 -12 49.4375 C-12.33 48.7775 -12.66 48.1175 -13 47.4375 C-12.0925 47.746875 -11.185 48.05625 -10.25 48.375 C-4.95493464 49.91439013 0.52225363 50.09570302 6 50.4375 C6 49.4475 6 48.4575 6 47.4375 C5.33613281 47.46070313 4.67226563 47.48390625 3.98828125 47.5078125 C-3.84618808 47.66793304 -7.94603306 46.62661452 -14 41.4375 C-13.67 40.7775 -13.34 40.1175 -13 39.4375 C-11.88625 40.3965625 -11.88625 40.3965625 -10.75 41.375 C-5.69437814 45.16671639 -0.1323608 44.94853007 6 44.4375 C11.73959332 42.74384951 14.62345951 40.35760185 18 35.4375 C20.61163311 30.21423378 20.49071008 24.99767727 19 19.4375 C16.6150291 15.20310556 13.45458844 11.81968689 10 8.4375 C11.32 8.7675 12.64 9.0975 14 9.4375 C13.7465049 7.48337844 13.7465049 7.48337844 13 5.4375 C6.194727 1.77312223 -0.41706687 2.12539757 -8 2.4375 C-5.30110992 -0.26139008 -3.77157544 0.07560941 0 0 Z " fill="#C9C9C9" transform="translate(380,94.5625)"/>
<path d="M0 0 C2.75105422 -0.10812003 5.49785087 -0.18734945 8.25 -0.25 C9.02730469 -0.28351563 9.80460937 -0.31703125 10.60546875 -0.3515625 C14.41131593 -0.41661972 16.3680491 -0.44517215 19.55078125 1.796875 C21 4 21 4 20.9375 7.5 C20.05845835 10.78175549 19.26817785 12.5345893 17 15 C17.99 15.33 18.98 15.66 20 16 C22.29013653 19.4352048 22.17842973 20.985331 22 25 C20.3125 25.75 20.3125 25.75 18 26 C15.25 24.1875 15.25 24.1875 13 22 C13 21.34 13 20.68 13 20 C12.34 20 11.68 20 11 20 C10.87625 19.360625 10.7525 18.72125 10.625 18.0625 C10.41875 17.381875 10.2125 16.70125 10 16 C9.34 15.67 8.68 15.34 8 15 C8 17.97 8 20.94 8 24 C3.25 25.125 3.25 25.125 1 24 C-0.27282972 18.92469156 -0.11634713 13.81917675 -0.0625 8.625 C-0.05798828 7.79355469 -0.05347656 6.96210937 -0.04882812 6.10546875 C-0.03713164 4.07028103 -0.01919935 2.03513077 0 0 Z M8 5 C8 6.65 8 8.3 8 10 C9.65 9.67 11.3 9.34 13 9 C12.67 7.68 12.34 6.36 12 5 C10.68 5 9.36 5 8 5 Z " fill="#5D5D5C" transform="translate(371,109)"/>
<path d="M0 0 C0.66 0.33 1.32 0.66 2 1 C-0.625 5.875 -0.625 5.875 -4 7 C-4.33 17.23 -4.66 27.46 -5 38 C1.00960937 37.98453125 1.00960937 37.98453125 7.140625 37.96875 C22.34778494 37.95435993 37.54591952 38.20199842 52.75 38.5 C55.320308 38.54841667 57.8906205 38.59659461 60.4609375 38.64453125 C66.64067934 38.76028761 72.82036032 38.87891838 79 39 C79 39.33 79 39.66 79 40 C67.93465142 40.02312283 56.86930855 40.04091478 45.80394077 40.05181217 C40.66640434 40.05704113 35.52888437 40.06413901 30.39135742 40.07543945 C25.4376859 40.08626787 20.48403026 40.09227674 15.53034782 40.09487724 C13.63602384 40.09673157 11.74170076 40.10035234 9.8473835 40.10573006 C7.20365614 40.11293989 4.55999529 40.11399097 1.91625977 40.11352539 C1.12504227 40.11712067 0.33382477 40.12071594 -0.48136902 40.12442017 C-5.88594784 40.11405216 -5.88594784 40.11405216 -7 39 C-7.26690528 34.49500698 -7.27128292 29.98436704 -7.29516602 25.47241211 C-7.31235282 23.2069003 -7.35621837 20.94285786 -7.40039062 18.67773438 C-7.41051971 17.23698991 -7.41903514 15.79623302 -7.42578125 14.35546875 C-7.44036377 13.04215576 -7.45494629 11.72884277 -7.4699707 10.37573242 C-7 7 -7 7 -5.09838867 4.5402832 C-3 3 -3 3 -1 3 C-0.67 2.01 -0.34 1.02 0 0 Z " fill="#888888" transform="translate(164,363)"/>
<path d="M0 0 C0.495 1.98 0.495 1.98 1 4 C2.32 3.67 3.64 3.34 5 3 C4.50944097 7.2515116 2.05717672 10.19459077 -1 13 C-7.7543884 17.5029256 -13.77798682 19.83370064 -22 19 C-25.10323033 18.24858888 -28.11382752 17.37677374 -31 16 C-31.33 15.34 -31.66 14.68 -32 14 C-31.0925 14.309375 -30.185 14.61875 -29.25 14.9375 C-23.95493464 16.47689013 -18.47774637 16.65820302 -13 17 C-13 16.01 -13 15.02 -13 14 C-13.99580078 14.03480469 -13.99580078 14.03480469 -15.01171875 14.0703125 C-22.84618808 14.23043304 -26.94603306 13.18911452 -33 8 C-32.67 7.34 -32.34 6.68 -32 6 C-30.88625 6.9590625 -30.88625 6.9590625 -29.75 7.9375 C-24.69437814 11.72921639 -19.1323608 11.51103007 -13 11 C-7.10073651 9.25923372 -4.49387763 6.82977202 -1 2 C-0.67 1.34 -0.34 0.68 0 0 Z " fill="#696969" transform="translate(399,128)"/>
<path d="M0 0 C0 3.48354205 -0.45035158 3.88427053 -2.6875 6.375 C-3.18636719 6.93960938 -3.68523437 7.50421875 -4.19921875 8.0859375 C-8.19638569 12.33455312 -12.40092639 16.34420894 -16.67358398 20.31201172 C-18.0882105 21.6323298 -19.49365849 22.96253491 -20.89086914 24.30126953 C-23.84233698 27.12241105 -26.65725414 29.76083362 -30.01171875 32.1015625 C-33.66088411 34.76939032 -35.69513522 37.46226001 -36.58251953 41.93823242 C-36.66928955 43.5060144 -36.66928955 43.5060144 -36.7578125 45.10546875 C-36.82299072 46.23936035 -36.88816895 47.37325195 -36.95532227 48.54150391 C-37.11229464 53.69835026 -37.12228331 58.84245282 -37 64 C-37.66 63.67 -38.32 63.34 -39 63 C-39.20521049 59.33417393 -39.32825201 55.6698406 -39.4375 52 C-39.49615234 50.97003906 -39.55480469 49.94007813 -39.61523438 48.87890625 C-39.63779297 47.86699219 -39.66035156 46.85507813 -39.68359375 45.8125 C-39.72025146 44.89082031 -39.75690918 43.96914062 -39.79467773 43.01953125 C-38.54722829 38.27960661 -35.36754798 35.44955988 -32 32 C-31.07671654 31.0423877 -31.07671654 31.0423877 -30.13478088 30.06542969 C-28.21295217 28.09812849 -26.26866908 26.15583401 -24.31640625 24.21875 C-23.61603745 23.51979614 -22.91566864 22.82084229 -22.19407654 22.10070801 C-19.98591542 19.89808461 -17.77427963 17.69898919 -15.5625 15.5 C-14.05250186 13.99502492 -12.5427341 12.48981865 -11.03320312 10.984375 C-7.35812359 7.32024171 -3.67992644 3.6592652 0 0 Z " fill="#5C5C5C" transform="translate(139,130)"/>
<path d="M0 0 C-0.33 1.32 -0.66 2.64 -1 4 C-4.62755759 3.78079608 -8.2508559 3.51945309 -11.875 3.25 C-12.90753906 3.188125 -13.94007813 3.12625 -15.00390625 3.0625 C-15.99003906 2.98515625 -16.97617187 2.9078125 -17.9921875 2.828125 C-18.90339355 2.7652832 -19.81459961 2.70244141 -20.75341797 2.63769531 C-23 2 -23 2 -24.31298828 -0.05175781 C-24.53970215 -0.69467773 -24.76641602 -1.33759766 -25 -2 C-15.79482621 -5.77648155 -8.74913941 -4.09145559 0 0 Z " fill="#CBCBCB" transform="translate(395,100)"/>
<path d="M0 0 C3.96 0.33 7.92 0.66 12 1 C12 1.33 12 1.66 12 2 C9.69 2 7.38 2 5 2 C5 4.97 5 7.94 5 11 C6.32 11.33 7.64 11.66 9 12 C7.68 12 6.36 12 5 12 C5 15.3 5 18.6 5 22 C3.35 22 1.7 22 0 22 C0 14.74 0 7.48 0 0 Z " fill="#EEEEEE" transform="translate(373,110)"/>
<path d="M0 0 C8.23657459 0.12755757 13.74535549 2.72529624 20 7.9375 C21.96384919 10.39231149 23.06146947 12.45126651 24 15.4375 C23.01 15.1075 22.02 14.7775 21 14.4375 C21 13.4475 21 12.4575 21 11.4375 C20.01 11.9325 20.01 11.9325 19 12.4375 C19.2165625 12.94796875 19.433125 13.4584375 19.65625 13.984375 C22.17035499 20.54898247 22.31865951 26.46239733 22 33.4375 C21.34 33.4375 20.68 33.4375 20 33.4375 C20.02320313 32.86902344 20.04640625 32.30054687 20.0703125 31.71484375 C20.26902972 23.21258575 18.82256956 17.68611124 13 11.4375 C12.01709032 10.42069689 11.02665213 9.41011781 10 8.4375 C11.32 8.7675 12.64 9.0975 14 9.4375 C13.7465049 7.48337844 13.7465049 7.48337844 13 5.4375 C6.194727 1.77312223 -0.41706687 2.12539757 -8 2.4375 C-5.30110992 -0.26139008 -3.77157544 0.07560941 0 0 Z " fill="#696969" transform="translate(380,94.5625)"/>
<path d="M0 0 C1.65 0 3.3 0 5 0 C5.226875 0.7425 5.45375 1.485 5.6875 2.25 C7.31630344 5.66273103 8.85026629 6.91158961 12 9 C15.56128387 9.90369004 15.56128387 9.90369004 19.3125 10.25 C21.19388672 10.47429687 21.19388672 10.47429687 23.11328125 10.703125 C24.06589844 10.80109375 25.01851563 10.8990625 26 11 C26 11.99 26 12.98 26 14 C18.51559867 14.44906408 12.15856518 14.70788094 6 10 C3.72132901 7.84846516 1.64107661 5.67918188 0 3 C0 2.01 0 1.02 0 0 Z " fill="#E5E5E5" transform="translate(360,131)"/>
<path d="M0 0 C0.33 1.32 0.66 2.64 1 4 C2.32 3.67 3.64 3.34 5 3 C4.49897679 7.34220113 1.85962472 9.86803007 -1 13 C-4 15 -4 15 -8 15 C-8 14.34 -8 13.68 -8 13 C-9.65 12.67 -11.3 12.34 -13 12 C-12.41476562 11.72929687 -11.82953125 11.45859375 -11.2265625 11.1796875 C-9.01620758 10.00858717 -7.27714736 8.74224423 -5.375 7.125 C-4.78460938 6.63257813 -4.19421875 6.14015625 -3.5859375 5.6328125 C-1.88194158 3.87845217 -0.97489613 2.22971292 0 0 Z " fill="#9B9B9B" transform="translate(399,128)"/>
<path d="M0 0 C0.99 0 1.98 0 3 0 C3.66 1.32 4.32 2.64 5 4 C2.86889298 6.5548766 1.68454042 7.87550795 -1.6449585 8.48101807 C-3.15053314 8.4676944 -3.15053314 8.4676944 -4.68652344 8.45410156 C-5.82740417 8.45379944 -6.96828491 8.45349731 -8.14373779 8.45318604 C-9.36989807 8.43254089 -10.59605835 8.41189575 -11.859375 8.390625 C-13.11888977 8.38496521 -14.37840454 8.37930542 -15.67608643 8.37347412 C-19.01709024 8.35488047 -22.35699467 8.31897328 -25.69769287 8.2746582 C-29.10956339 8.23366502 -32.52154769 8.21545459 -35.93359375 8.1953125 C-42.6226992 8.15119664 -49.31128614 8.0842465 -56 8 C-56 7.67 -56 7.34 -56 7 C-28.775 6.505 -28.775 6.505 -1 6 C-1 4.35 -1 2.7 -1 1 C-0.67 0.67 -0.34 0.34 0 0 Z " fill="#EEEEEE" transform="translate(243,394)"/>
<path d="M0 0 C0.99 0.33 1.98 0.66 3 1 C2.34 1 1.68 1 1 1 C3.0072908 4.0109362 3.83884224 4.63016497 7 6 C6.38511719 6.32613281 5.77023437 6.65226562 5.13671875 6.98828125 C4.32847656 7.42527344 3.52023437 7.86226563 2.6875 8.3125 C1.88699219 8.74175781 1.08648437 9.17101562 0.26171875 9.61328125 C-1.83787272 10.90059554 -3.35447721 12.18406708 -5 14 C-5 11.69 -5 9.38 -5 7 C-5.99 7.33 -6.98 7.66 -8 8 C-6.49860488 3.79609368 -3.82724957 2.10889262 0 0 Z " fill="#909090" transform="translate(369,97)"/>
<path d="M0 0 C0.99 0.33 1.98 0.66 3 1 C3.02691685 3.45840605 3.04679802 5.91651882 3.0625 8.375 C3.07087891 9.07367188 3.07925781 9.77234375 3.08789062 10.4921875 C3.11328125 15.7734375 3.11328125 15.7734375 2 18 C1.01 17.67 0.02 17.34 -1 17 C-1.02691685 14.54159395 -1.04679802 12.08348118 -1.0625 9.625 C-1.07087891 8.92632812 -1.07925781 8.22765625 -1.08789062 7.5078125 C-1.11328125 2.2265625 -1.11328125 2.2265625 0 0 Z " fill="#F1F1F1" transform="translate(358,112)"/>
<path d="M0 0 C8.625 -0.25 8.625 -0.25 12 2 C12.1875 5.625 12.1875 5.625 12 9 C11.67 9 11.34 9 11 9 C10.67 7.35 10.34 5.7 10 4 C9.34 4 8.68 4 8 4 C8 5.98 8 7.96 8 10 C5.36 10 2.72 10 0 10 C0 6.7 0 3.4 0 0 Z M1 4 C1 5.65 1 7.3 1 9 C2.65 8.67 4.3 8.34 6 8 C5.67 6.68 5.34 5.36 5 4 C3.68 4 2.36 4 1 4 Z " fill="#9A9A99" transform="translate(378,110)"/>
<path d="M0 0 C0.33 0.66 0.66 1.32 1 2 C0.67 2.99 0.34 3.98 0 5 C-0.29098034 10.04936467 -0.31036161 15.08614397 1 20 C-0.32 20 -1.64 20 -3 20 C-1.07848152 24.13126473 1.04250209 27.53258866 4 31 C0.64117925 29.58768539 -1.13329047 27.96631022 -3.3125 25.0625 C-4.11107422 24.02802734 -4.11107422 24.02802734 -4.92578125 22.97265625 C-5.28027344 22.32167969 -5.63476562 21.67070312 -6 21 C-5.505 19.515 -5.505 19.515 -5 18 C-4.34 18.33 -3.68 18.66 -3 19 C-2.95101563 17.87980469 -2.90203125 16.75960937 -2.8515625 15.60546875 C-2.77652144 14.13278797 -2.70097418 12.66013293 -2.625 11.1875 C-2.5940625 10.44951172 -2.563125 9.71152344 -2.53125 8.95117188 C-2.32653852 5.18106885 -2.13566173 3.20349259 0 0 Z " fill="#595959" transform="translate(363,111)"/>
<path d="M0 0 C0.66 0.33 1.32 0.66 2 1 C-0.07608099 4.94455388 -0.82200357 5.91100178 -5 8 C-5.33 18.23 -5.66 28.46 -6 39 C-6.33 39 -6.66 39 -7 39 C-7.09903473 34.51601216 -7.17154483 30.03260708 -7.21972656 25.54785156 C-7.23981599 24.02299915 -7.26709316 22.49822352 -7.30175781 20.97363281 C-7.35039796 18.77910402 -7.37299396 16.58559531 -7.390625 14.390625 C-7.41157227 13.07094727 -7.43251953 11.75126953 -7.45410156 10.39160156 C-7 7 -7 7 -5.10058594 4.53808594 C-3 3 -3 3 -1 3 C-0.67 2.01 -0.34 1.02 0 0 Z " fill="#5C5C5C" transform="translate(164,363)"/>
<path d="M0 0 C0 3.48354205 -0.45035158 3.88427053 -2.6875 6.375 C-3.23792969 6.98859375 -3.78835937 7.6021875 -4.35546875 8.234375 C-8.33354796 12.50537691 -12.48045784 16.3213029 -17 20 C-16.42619828 16.33622257 -15.02730342 14.67232775 -12.40234375 12.109375 C-11.68369141 11.40039062 -10.96503906 10.69140625 -10.22460938 9.9609375 C-9.46986328 9.23132813 -8.71511719 8.50171875 -7.9375 7.75 C-7.17888672 7.00492188 -6.42027344 6.25984375 -5.63867188 5.4921875 C-3.76567793 3.65453306 -1.88604389 1.82424276 0 0 Z " fill="#999999" transform="translate(139,130)"/>
<path d="M0 0 C0.33 1.32 0.66 2.64 1 4 C2.32 3.67 3.64 3.34 5 3 C4.49477778 7.37859255 1.82172778 9.81651224 -1 13 C-1.66 12.67 -2.32 12.34 -3 12 C-2.67 11.38125 -2.34 10.7625 -2 10.125 C-0.85806765 8.08981656 -0.85806765 8.08981656 -1 6 C-2.32 7.32 -3.64 8.64 -5 10 C-5.66 9.67 -6.32 9.34 -7 9 C-6.57847656 8.51789063 -6.15695312 8.03578125 -5.72265625 7.5390625 C-5.17480469 6.90742188 -4.62695312 6.27578125 -4.0625 5.625 C-3.51722656 4.99851563 -2.97195313 4.37203125 -2.41015625 3.7265625 C-0.93041376 2.04367666 -0.93041376 2.04367666 0 0 Z " fill="#696969" transform="translate(399,128)"/>
<path d="M0 0 C3 1 3 1 5 4 C5.125 7.1875 5.125 7.1875 5 10 C3.1875 10.6875 3.1875 10.6875 1 11 C-0.75 9.5625 -0.75 9.5625 -2 8 C-1.484375 7.236875 -0.96875 6.47375 -0.4375 5.6875 C0.2740625 4.3571875 0.2740625 4.3571875 1 3 C0.67 2.01 0.34 1.02 0 0 Z " fill="#787877" transform="translate(388,124)"/>
<path d="M0 0 C0.99 0 1.98 0 3 0 C3.66 1.32 4.32 2.64 5 4 C3.35 5.32 1.7 6.64 0 8 C-0.38063221 5.6739143 -0.71269945 3.33944736 -1 1 C-0.67 0.67 -0.34 0.34 0 0 Z " fill="#CCCCCC" transform="translate(243,394)"/>
<path d="M0 0 C1.32 0.66 2.64 1.32 4 2 C1.03 4.475 1.03 4.475 -2 7 C-2.6875 5.1875 -2.6875 5.1875 -3 3 C-1.5625 1.25 -1.5625 1.25 0 0 Z " fill="#B9B9B9" transform="translate(253,387)"/>
<path d="M0 0 C0.66 0.33 1.32 0.66 2 1 C0.75023244 4.65316671 0.32901247 5.78065836 -3 8 C-3.75 6.25 -3.75 6.25 -4 4 C-2.0625 1.75 -2.0625 1.75 0 0 Z " fill="#EAEAEA" transform="translate(398,133)"/>
<path d="M0 0 C0 2.31 0 4.62 0 7 C-0.99 7.33 -1.98 7.66 -3 8 C-3 5.69 -3 3.38 -3 1 C-1 0 -1 0 0 0 Z " fill="#F9F9F7" transform="translate(389,113)"/>
<path d="M0 0 C0.66 0.33 1.32 0.66 2 1 C0.95125002 3.62187494 0.35068687 4.79371361 -2.125 6.25 C-2.74375 6.4975 -3.3625 6.745 -4 7 C-4 5.68 -4 4.36 -4 3 C-2 1.25 -2 1.25 0 0 Z " fill="#C1C1C1" transform="translate(364,102)"/>
<path d="M0 0 C0.99 0.99 1.98 1.98 3 3 C1.68 4.65 0.36 6.3 -1 8 C-1.625 5.125 -1.625 5.125 -2 2 C-1.34 1.34 -0.68 0.68 0 0 Z " fill="#D2D2D1" transform="translate(387,124)"/>
</svg>
